<svg width="103" height="155" viewBox="0 0 103 155" fill="none" xmlns="http://www.w3.org/2000/svg">
<g id="Sad Face" clip-path="url(#clip0_5842_9908)">
<g id="Vector">
<path d="M57.9199 98.99V107.83C57.9199 111.43 60.2399 114.49 63.4599 115.61V124.41C63.4599 128.01 65.7799 131.07 68.9999 132.19V135.49C68.9999 139.22 71.4799 142.37 74.8799 143.39C75.6699 146.04 77.7499 148.12 80.3899 148.92C81.4099 152.31 84.5599 154.78 88.2799 154.78H93.7799C98.3299 154.78 102.02 151.09 102.02 146.54V141.04C102.02 137.45 99.7199 134.4 96.5199 133.27V129.96C96.5199 126.37 94.2199 123.32 91.0199 122.19V113.34C91.0199 109.74 88.6999 106.68 85.4799 105.56V49.22C88.6999 48.1 91.0199 45.04 91.0199 41.44V32.63C94.2199 31.5 96.5199 28.45 96.5199 24.86V21.55C99.7199 20.42 102.02 17.37 102.02 13.78V8.24C102.02 3.69 98.3299 0 93.7799 0H88.2799C84.5499 0 81.3899 2.49 80.3799 5.89C77.7399 6.69 75.6699 8.78 74.8799 11.42C71.4799 12.43 68.9999 15.58 68.9999 19.32V22.62C65.7799 23.74 63.4599 26.8 63.4599 30.4V39.17C60.2399 40.29 57.9199 43.35 57.9199 46.95V55.79C54.6999 56.91 52.3799 59.97 52.3799 63.57V91.23C52.3799 94.83 54.6999 97.89 57.9199 99.01V98.99Z" fill="black"/>
<path d="M57.9199 98.99V107.83C57.9199 111.43 60.2399 114.49 63.4599 115.61V124.41C63.4599 128.01 65.7799 131.07 68.9999 132.19V135.49C68.9999 139.22 71.4799 142.37 74.8799 143.39C75.6699 146.04 77.7499 148.12 80.3899 148.92C81.4099 152.31 84.5599 154.78 88.2799 154.78H93.7799C98.3299 154.78 102.02 151.09 102.02 146.54V141.04C102.02 137.45 99.7199 134.4 96.5199 133.27V129.96C96.5199 126.37 94.2199 123.32 91.0199 122.19V113.34C91.0199 109.74 88.6999 106.68 85.4799 105.56V49.22C88.6999 48.1 91.0199 45.04 91.0199 41.44V32.63C94.2199 31.5 96.5199 28.45 96.5199 24.86V21.55C99.7199 20.42 102.02 17.37 102.02 13.78V8.24C102.02 3.69 98.3299 0 93.7799 0H88.2799C84.5499 0 81.3899 2.49 80.3799 5.89C77.7399 6.69 75.6699 8.78 74.8799 11.42C71.4799 12.43 68.9999 15.58 68.9999 19.32V22.62C65.7799 23.74 63.4599 26.8 63.4599 30.4V39.17C60.2399 40.29 57.9199 43.35 57.9199 46.95V55.79C54.6999 56.91 52.3799 59.97 52.3799 63.57V91.23C52.3799 94.83 54.6999 97.89 57.9199 99.01V98.99Z" fill="black" fill-opacity="0.2"/>
</g>
<g id="Vector_2">
<path d="M24.82 88.4805H8.24C3.69 88.4805 0 92.1705 0 96.7205V113.3C0 117.85 3.69 121.54 8.24 121.54H24.82C29.37 121.54 33.06 117.85 33.06 113.3V96.7205C33.06 92.1705 29.37 88.4805 24.82 88.4805ZM16.58 105.06H16.48V104.96H16.58V105.06Z" fill="black"/>
<path d="M24.82 88.4805H8.24C3.69 88.4805 0 92.1705 0 96.7205V113.3C0 117.85 3.69 121.54 8.24 121.54H24.82C29.37 121.54 33.06 117.85 33.06 113.3V96.7205C33.06 92.1705 29.37 88.4805 24.82 88.4805ZM16.58 105.06H16.48V104.96H16.58V105.06Z" fill="black" fill-opacity="0.2"/>
</g>
<g id="Vector_3">
<path d="M24.82 44.21H8.24C3.69 44.21 0 47.9 0 52.45V69.06C0 73.61 3.69 77.3 8.24 77.3H24.82C29.37 77.3 33.06 73.61 33.06 69.06V52.45C33.06 47.9 29.37 44.21 24.82 44.21ZM16.58 60.82H16.48V60.69H16.58V60.82Z" fill="black"/>
<path d="M24.82 44.21H8.24C3.69 44.21 0 47.9 0 52.45V69.06C0 73.61 3.69 77.3 8.24 77.3H24.82C29.37 77.3 33.06 73.61 33.06 69.06V52.45C33.06 47.9 29.37 44.21 24.82 44.21ZM16.58 60.82H16.48V60.69H16.58V60.82Z" fill="black" fill-opacity="0.2"/>
</g>
<path id="Vector_4" d="M87.4702 141H92.9702V146.5H87.4702V141ZM81.9702 13.7597H87.4702V24.8397H81.9702V41.4197H76.4302V113.31H81.9702V129.92H87.4702V141H81.9702V135.46H76.4302V124.38H70.8902V107.8H65.3502V91.1897H59.8102V63.5297H65.3502V46.9197H70.8902V30.3697H76.4302V19.2897H81.9702V13.7497V13.7597ZM87.4702 8.21973H92.9702V13.7597H87.4702V8.21973ZM24.8302 69.0697H8.24023V52.4597H24.8202V69.0697H24.8302ZM24.8302 113.31H8.24023V96.7297H24.8202V113.31H24.8302Z" fill="#0064FF"/>
</g>
<defs>
<clipPath id="clip0_5842_9908">
<rect width="102.03" height="154.77" fill="white"/>
</clipPath>
</defs>
</svg>
